<svg xmlns="http://www.w3.org/2000/svg" viewBox="0 0 512 512"
  fill="currentColor">
  <path
    d="M349.3 69.3a93.6 93.6 0 0193.4 93.4v186.6a93.6 93.6 0 01-93.4 93.4H162.7a93.6 93.6 0 01-93.4-93.4V162.7a93.6 93.6 0 0193.4-93.4h186.6m0-37.3H162.7A131 131 0 0032 162.7v186.6A131 131 0 00162.7 480h186.6A131 131 0 00480 349.3V162.7A131 131 0 00349.3 32z" />
  <path
    d="M377.3 162.7a28 28 0 1128-28 28 28 0 01-28 28zM256 181.3a74.7 74.7 0 11-74.7 74.7 74.8 74.8 0 0174.7-74.7m0-37.3a112 112 0 10112 112 112 112 0 00-112-112z" />
</svg>