<svg xmlns="http://www.w3.org/2000/svg" viewBox="0 0 512 512">
  <path fill="none" stroke="currentColor" stroke-miterlimit="10"
    stroke-width="32"
    d="M451 374c-15.9-16-54.3-39.4-73-48.8-24.3-12.2-26.3-13.2-45.4 1-12.7 9.5-21.2 18-36.1 14.7s-47.3-21-75.7-49.3-47.3-61.7-50.5-76.5 5.4-23.3 14.8-36c13.2-18 12.2-21 .9-45.3-8.8-19-32.9-57-49-72.8-17.1-17-17.1-14-28.2-9.4A160.2 160.2 0 0083 65.4C67 76 58.1 84.8 52 98s-9 44.4 23 102.6 54.5 88 101.1 134.5S258.5 406.6 311 436c64.7 36.3 89.6 29.2 102.9 23s22.1-15 32.8-31a159 159 0 0013.8-25.8c4.6-11 7.6-11-9.4-28.2z" />
</svg>