<svg xmlns="http://www.w3.org/2000/svg" viewBox="0 0 512 512">
  <g fill="currentColor">
    <path
      d="M282.1 152.43h-65.26a12.19 12.19 0 00-12.19 12.19v92.25h-13.92a12.19 12.19 0 000 24.37h13.92v27.84h-13.92a12.19 12.19 0 000 24.38h13.92v26.97a12.19 12.19 0 0024.38 0v-26.97h53.08a12.19 12.19 0 000-24.38h-53.08v-27.84h53.08c35.51 0 64.4-28.89 64.4-64.4 0-36.4-29.64-64.4-64.4-64.4zm0 104.44h-53.07V176.8h53.08a40 40 0 0140.03 40.03 40.07 40.07 0 01-40.03 40.03z" />
    <path
      d="M256 48C141.3 48 48 141.3 48 256s93.3 208 208 208 208-93.3 208-208S370.7 48 256 48zm0 391.63c-101.25 0-183.63-82.38-183.63-183.63S154.75 72.37 256 72.37 439.63 154.75 439.63 256 357.25 439.63 256 439.63z" />
  </g>
</svg>