<svg xmlns="http://www.w3.org/2000/svg" fill-rule="evenodd" fill="currentColor"
  stroke-linejoin="round" stroke-miterlimit="1.4" clip-rule="evenodd"
  viewBox="0 0 512 512">
  <path
    d="M256 32.1a223.9 223.9 0 100 447.8A223.9 223.9 0 00256 32zm0 37.3c102.9 0 186.6 83.7 186.6 186.6S358.9 442.5 256 442.5 69.4 359 69.4 256 153.1 69.4 256 69.4zm50.2 277.8a11 11 0 0010.3 1.4c3.5-1.3 6-4.3 6.8-7.9 8.1-38 27.8-134.5 35.1-169.1.6-2.6-.3-5.4-2.4-7.1-2-1.7-4.9-2.2-7.4-1.3L139.8 241a7.7 7.7 0 00.5 14.5c22 6.6 51 15.8 51 15.8s13.6 41 20.6 61.8c1 2.5 3 4.6 5.6 5.3a8 8 0 007.6-2l28.9-27.2s33.3 24.5 52.2 37.9zm-102.7-81l15.7 51.7 3.5-32.7 95-85.7c1-.9 1.1-2.4.3-3.5-.9-1-2.4-1.3-3.5-.6l-111 70.9z" />
</svg>