<svg xmlns="http://www.w3.org/2000/svg" viewBox="0 0 512 512">
  <path fill-rule="evenodd" fill="currentColor"
    d="M484.7 132c3.6-11.3 0-19.5-15.8-19.5h-52.3c-13.2 0-19.3 7.2-22.9 14.9 0 0-27 65.6-64.6 108.1-12.2 12.3-17.7 16.4-24.4 16.4-3.5 0-8-4-8-15.4v-105c0-13.4-4.1-19.5-15.3-19.5H199c-8.1 0-13.2 6.2-13.2 12.3 0 12.8 18.8 15.9 20.8 51.8V254c0 17-3 20-9.6 20-17.8 0-61-66.1-87-141.4-5-15-10.1-20.6-23.3-20.6h-53c-15.2 0-17.7 7.2-17.7 14.9 0 13.8 17.8 83.5 82.9 175.7 43.2 63 104.7 96.9 160 96.9 33.7 0 37.7-7.7 37.7-20.5v-47.7c0-15.3 3-17.9 13.7-17.9 7.7 0 21.4 4 52.4 34.3 35.6 35.9 41.7 52.3 61.5 52.3h52.4c15.2 0 22.3-7.7 18.3-22.6-4.6-14.8-21.9-36.3-44.3-62-12.2-14.3-30.5-30.2-36-37.9-7.7-10.2-5.6-14.3 0-23.5-.6 0 63.5-91.3 70.1-122" />
</svg>