<svg xmlns="http://www.w3.org/2000/svg" viewBox="0 0 512 512">
  <path fill-rule="evenodd" fill="currentColor"
    d="M414.7 97.1A222.1 222.1 0 00257 32C134 32 34 131.6 34 254a220.6 220.6 0 0029.8 111L32 480l118.3-30.9a223.6 223.6 0 00106.5 27h.1c123 0 223-99.6 223.1-222a220.2 220.2 0 00-65.3-157zM257 438.7a185.8 185.8 0 01-94.4-25.8l-6.8-4-70.1 18.4 18.7-68.1-4.4-7A183.5 183.5 0 0171.5 254 185.2 185.2 0 01257 69.5a185 185 0 01185.3 184.6A185.2 185.2 0 01257 438.7zm101.7-138.2c-5.5-2.8-33-16.2-38-18s-8.9-2.9-12.6 2.7-14.4 18-17.6 21.8-6.5 4.1-12.1 1.3-23.5-8.6-44.8-27.5c-16.6-14.7-27.8-32.9-31-38.4s-.4-8.6 2.4-11.3c2.5-2.5 5.6-6.5 8.4-9.8s3.7-5.5 5.5-9.2 1-7-.4-9.7-12.6-30.1-17.2-41.2c-4.5-10.8-9.1-9.4-12.5-9.5-3.3-.2-7-.2-10.7-.2a20.5 20.5 0 00-14.9 6.9c-5.1 5.6-19.5 19-19.5 46.3s20 53.7 22.8 57.4 39.3 59.7 95.2 83.7a323.1 323.1 0 0031.7 11.7 76.7 76.7 0 0035.1 2.2c10.8-1.6 33-13.4 37.7-26.4s4.6-24 3.2-26.3-5-3.8-10.7-6.5z" />
</svg>